<svg xmlns="http://www.w3.org/2000/svg" width="60.541" height="53.584" viewBox="0 0 60.541 53.584">
  <g id="known--tech_icon" transform="translate(-201.749 100.729)">
    <path id="Path_500" data-name="Path 500" d="M239.171-95.434a1.262,1.262,0,0,0-1.261,1.262,1.261,1.261,0,0,0,1.261,1.261,1.261,1.261,0,0,0,1.262-1.261A1.262,1.262,0,0,0,239.171-95.434Z" transform="translate(6.388 0.78)" fill="#8a8a8a" stroke="#db5935" stroke-width="1"/>
    <path id="Path_501" data-name="Path 501" d="M246.241-95.434a1.262,1.262,0,0,0-1.262,1.262,1.261,1.261,0,0,0,1.262,1.261,1.261,1.261,0,0,0,1.262-1.261A1.262,1.262,0,0,0,246.241-95.434Z" transform="translate(7.672 0.78)" fill="#8a8a8a" stroke="#db5935" stroke-width="1"/>
    <line id="Line_371" data-name="Line 371" x1="58.541" transform="translate(202.749 -88.036)" fill="none" stroke="#db5935" stroke-linecap="round" stroke-linejoin="round" stroke-width="2"/>
    <rect id="Rectangle_1748" data-name="Rectangle 1748" width="58.541" height="51.584" transform="translate(202.749 -99.729)" fill="none" stroke="#db5935" stroke-linecap="round" stroke-linejoin="round" stroke-width="2"/>
    <line id="Line_372" data-name="Line 372" x1="4.88" y2="22.826" transform="translate(230.105 -79.046)" fill="none" stroke="#db5935" stroke-linecap="round" stroke-linejoin="round" stroke-width="2"/>
    <path id="Path_502" data-name="Path 502" d="M234.828-79.056l9.41,7.667-9.41,7.667" transform="translate(5.828 3.756)" fill="none" stroke="#db5935" stroke-linecap="round" stroke-linejoin="round" stroke-width="2"/>
    <path id="Path_503" data-name="Path 503" d="M221.657-79.056l-9.41,7.667,9.41,7.667" transform="translate(1.726 3.756)" fill="none" stroke="#db5935" stroke-linecap="round" stroke-linejoin="round" stroke-width="2"/>
  </g>
</svg>
