<svg xmlns="http://www.w3.org/2000/svg" width="84.97" height="57.074" viewBox="0 0 84.97 57.074">
  <path id="known--leadership_icon" d="M58.627-69.473c5.009-.154,9.077-4.669,9.077-10.076s-4.068-9.194-9.077-8.458-9.081,5.238-9.081,10.069A8.6,8.6,0,0,0,58.627-69.473Zm7.88,3.832a15.428,15.428,0,0,0-7.88-1.98c-9.022.172-16.338,6.565-16.338,14.285a13.389,13.389,0,0,0,1.68,6.369c4.694.978,9.564,1.809,14.554,2.44a21.588,21.588,0,0,1-.355-3.915A22.235,22.235,0,0,1,66.507-65.641ZM83.8-70.5A11.754,11.754,0,0,0,95.561-82.238,11.743,11.743,0,0,0,83.8-93.968a11.743,11.743,0,0,0-11.756,11.73A11.754,11.754,0,0,0,83.8-70.5Zm21.161,22.059c0-10.888-9.476-19.713-21.161-19.713S62.654-59.33,62.654-48.442a18.5,18.5,0,0,0,2.169,8.7c6.12.554,12.474.851,18.975.851s12.864-.3,18.983-.851A18.42,18.42,0,0,0,104.959-48.442ZM118-79.249c0-4.831-4.068-9.334-9.081-10.069s-9.077,3.046-9.077,8.458,4.068,9.922,9.077,10.076A8.6,8.6,0,0,0,118-79.249Zm-8.622,29.5a21.588,21.588,0,0,1-.355,3.915c4.99-.631,9.86-1.462,14.554-2.44a13.389,13.389,0,0,0,1.68-6.369c0-7.72-7.316-14.113-16.338-14.285a15.428,15.428,0,0,0-7.88,1.98A22.235,22.235,0,0,1,109.38-49.753Z" transform="translate(-41.289 94.968)" fill="none" stroke="#ff5246" stroke-linecap="round" stroke-linejoin="round" stroke-width="2"/>
</svg>
