<svg xmlns="http://www.w3.org/2000/svg" width="41.38" height="69.608" viewBox="0 0 41.38 69.608">
  <g id="learn--mobile_icon" transform="translate(-6.209 1.125)">
    <g id="Group_2268" data-name="Group 2268" transform="translate(7.334)">
      <path id="Path_574" data-name="Path 574" d="M41.914,0H11.883A4.563,4.563,0,0,0,7.334,4.549V62.807a4.564,4.564,0,0,0,4.549,4.552H41.914a4.561,4.561,0,0,0,4.549-4.549V4.549A4.563,4.563,0,0,0,41.914,0ZM41.6,56.07H12.2V9.714H41.6Z" transform="translate(-7.334)" fill="none" stroke="#fff" stroke-miterlimit="10" stroke-width="2.25"/>
    </g>
    <path id="Path_575" data-name="Path 575" d="M24.74,57.615a2.276,2.276,0,1,1,2.275-2.277A2.275,2.275,0,0,1,24.74,57.615Z" transform="translate(1.916 6.719)" fill="#fff" stroke="#fff" stroke-width="1"/>
    <path id="Path_576" data-name="Path 576" d="M20.282,3.749h9.607a.551.551,0,1,1,0,1.1H20.282a.551.551,0,0,1,0-1.1Z" transform="translate(1.57 0.475)" fill="#fff" stroke="#fff" stroke-miterlimit="10" stroke-width="2"/>
  </g>
</svg>
