<svg xmlns="http://www.w3.org/2000/svg" width="92" height="92" viewBox="0 0 92 92">
  <g id="learn--live_icon" transform="translate(-917 -1895)">
    <circle id="Ellipse_334" data-name="Ellipse 334" cx="46" cy="46" r="46" transform="translate(917 1895)" fill="#da3467"/>
    <path id="learn--live_icon-2" data-name="learn--live_icon" d="M257.4,366.8c-.232-1.26-2.226-4.566-4.81-5.1-4.333,5.008-11.236-1.7-12.738,4.572m10.464,8.356a2.739,2.739,0,0,1-3.379,0m4.8-6.7v.938m-6.225-.938v.938m10.373,14.073.128.02c2.1,1.473,8.583,2.9,10.315,3.254,1.9.39,4.171,1.708,4.171,3.983v1.022l-1.057,11.811m-24.282.032,2.279-13.977-1.932-5.045h6.233l-1.93,5.045,2.215,13.977M227.8,403.02l-1.057-11.811v-1.022c0-2.278,2.274-3.593,4.171-3.983,1.733-.355,8.217-1.781,10.315-3.254l.128-.02m14.587-10.173c-1.166,4.1-4.34,7.09-7.356,7.239-3.026-.149-6.21-3.156-7.367-7.278l-.571.09a1.193,1.193,0,0,1-1.355-1l-.558-3.646a1.2,1.2,0,0,1,.99-1.374l.406-.064a6,6,0,0,1-.279-1.81v-1.342a5.949,5.949,0,0,1,5.89-5.972h.7a.75.75,0,0,1,.043-.32c.362-.968,2.778-.937,5.4.067a13.34,13.34,0,0,1,1.548.71,6,6,0,0,1,3.635,5.515v1.342a6,6,0,0,1-.278,1.81l.4.064a1.2,1.2,0,0,1,.991,1.374l-.559,3.646a1.193,1.193,0,0,1-1.355,1Zm24.992,42.079H216.3c-.518,0-1.291-.477-.994-.887l6.795-9.338m59.834,9.338c.306.39-.46.887-.994.887m-5.8-10.224,6.792,9.338m-19.44-45.6h10.4a2.639,2.639,0,0,1,2.662,2.593v30.912a2.643,2.643,0,0,1-2.662,2.593h-48.56a2.656,2.656,0,0,1-2.661-2.593m53.883,0a2.656,2.656,0,0,1-2.661,2.593H224.336a2.643,2.643,0,0,1-2.662-2.593V370.937a2.635,2.635,0,0,1,2.662-2.593h10.476" transform="translate(713.994 1549.669)" fill="none" stroke="#fff" stroke-linecap="round" stroke-linejoin="round" stroke-width="2.25"/>
  </g>
</svg>
