<svg xmlns="http://www.w3.org/2000/svg" width="61.307" height="60.157" viewBox="0 0 61.307 60.157">
  <g id="learn--ebooks_icon" transform="translate(-635 -865.43)">
    <g id="Group_2272" data-name="Group 2272" transform="translate(636 866.43)">
      <g id="Group_2271" data-name="Group 2271" transform="translate(0 0)">
        <g id="Group_2270" data-name="Group 2270" transform="translate(0 0)">
          <path id="Path_577" data-name="Path 577" d="M115.687,3.216A3.221,3.221,0,0,0,112.472,0H78.042a3.22,3.22,0,0,0-3.214,3.216l.015,51.724a3.219,3.219,0,0,0,3.214,3.216h34.43a3.219,3.219,0,0,0,3.215-3.216ZM79.617,49.07V9.721h31.659V49.07Z" transform="translate(-74.828 0)" fill="none" stroke="#fff" stroke-miterlimit="10" stroke-width="2"/>
        </g>
      </g>
      <path id="Path_578" data-name="Path 578" d="M230.974,446.392a2.719,2.719,0,1,1,2.719-2.719A2.722,2.722,0,0,1,230.974,446.392Z" transform="translate(-210.537 -390.031)" fill="#fff"/>
      <path id="Path_579" data-name="Path 579" d="M225.4,33h4.49a.909.909,0,0,1,0,1.818H225.4a.909.909,0,0,1,0-1.818Z" transform="translate(-207.206 -29.189)" fill="#fff"/>
    </g>
    <rect id="Rectangle_1803" data-name="Rectangle 1803" width="14.025" height="32.434" transform="translate(669.132 879.202)" fill="#da3467"/>
    <g id="Group_2267" data-name="Group 2267" transform="translate(656.095 880.744)">
      <g id="Group_2261" data-name="Group 2261" transform="translate(0 0)">
        <g id="Group_2220" data-name="Group 2220" transform="translate(0)">
          <g id="Group_2219" data-name="Group 2219">
            <path id="Path_521" data-name="Path 521" d="M103.442,25.4h-2.65v-.9a.78.78,0,0,0-.561-.779A21.958,21.958,0,0,0,94.611,23c-3.118,0-7.366.7-10.507,3.9C80.986,23.67,76.707,23,73.6,23a21.959,21.959,0,0,0-5.62.717.779.779,0,0,0-.561.779v.9H64.789a.78.78,0,0,0-.779.779v24.9a.778.778,0,0,0,1.161.678c.078-.039,7.872-4.3,18.753-1.559h.187a.784.784,0,0,0,.187,0c10.912-2.767,18.706,1.489,18.753,1.559a.779.779,0,0,0,1.169-.67V26.18A.779.779,0,0,0,103.442,25.4ZM65.569,49.828V26.96h1.863V46.508a.779.779,0,0,0,.771.788.749.749,0,0,0,.126-.009A34.1,34.1,0,0,1,73.2,46.9,20.206,20.206,0,0,1,79.856,47.9,28.657,28.657,0,0,0,65.569,49.828ZM73.2,45.347a34.26,34.26,0,0,0-4.24.273V25.112a21.494,21.494,0,0,1,4.622-.515c2.915,0,6.937.67,9.727,3.819l.023,19.416C81.711,46.773,78.547,45.347,73.2,45.347ZM84.891,28.417C87.682,25.3,91.7,24.6,94.618,24.6a21.567,21.567,0,0,1,4.622.515V45.619a34.267,34.267,0,0,0-4.217-.281c-5.315,0-8.488,1.426-10.133,2.486Zm17.763,21.411A28.661,28.661,0,0,0,88.336,47.9,20.268,20.268,0,0,1,95.024,46.9a34.126,34.126,0,0,1,4.9.382.779.779,0,0,0,.888-.653.8.8,0,0,0,.009-.126V26.96h1.863Z" transform="translate(-64.01 -23)" fill="#fff"/>
          </g>
        </g>
        <path id="Path_522" data-name="Path 522" d="M91.341,42.686a.454.454,0,0,1-.291-.106c-3.441-2.867-9.888-1.736-9.952-1.724a.455.455,0,1,1-.163-.9c.282-.051,6.934-1.217,10.7,1.92a.456.456,0,0,1-.292.805Z" transform="translate(-74.035 -33.12)" fill="#fff"/>
        <path id="Path_523" data-name="Path 523" d="M91.341,50.388a.454.454,0,0,1-.291-.106c-3.441-2.868-9.888-1.736-9.952-1.724a.455.455,0,1,1-.163-.9c.282-.051,6.934-1.217,10.7,1.92a.456.456,0,0,1-.292.805Z" transform="translate(-74.035 -37.785)" fill="#fff"/>
        <path id="Path_524" data-name="Path 524" d="M91.341,58.091a.454.454,0,0,1-.291-.106c-3.441-2.867-9.888-1.736-9.952-1.724a.455.455,0,1,1-.163-.9c.282-.051,6.934-1.217,10.7,1.92a.456.456,0,0,1-.292.805Z" transform="translate(-74.035 -42.451)" fill="#fff"/>
        <path id="Path_525" data-name="Path 525" d="M91.341,65.793a.454.454,0,0,1-.291-.106c-3.441-2.867-9.888-1.736-9.952-1.724a.455.455,0,1,1-.163-.9c.282-.051,6.934-1.217,10.7,1.92a.456.456,0,0,1-.292.805Z" transform="translate(-74.035 -47.117)" fill="#fff"/>
        <path id="Path_526" data-name="Path 526" d="M121.069,42.686a.456.456,0,0,1-.292-.805c3.765-3.137,10.417-1.972,10.7-1.92a.455.455,0,0,1-.163.9c-.065-.012-6.517-1.139-9.952,1.724A.454.454,0,0,1,121.069,42.686Z" transform="translate(-98.297 -33.12)" fill="#fff"/>
        <path id="Path_527" data-name="Path 527" d="M121.069,50.389a.456.456,0,0,1-.292-.805c3.765-3.137,10.417-1.972,10.7-1.92a.456.456,0,0,1-.163.9c-.065-.012-6.517-1.139-9.952,1.724A.454.454,0,0,1,121.069,50.389Z" transform="translate(-98.297 -37.785)" fill="#fff"/>
        <path id="Path_528" data-name="Path 528" d="M121.069,58.091a.456.456,0,0,1-.292-.805c3.765-3.137,10.417-1.972,10.7-1.92a.455.455,0,0,1-.163.9c-.065-.012-6.517-1.139-9.952,1.724A.454.454,0,0,1,121.069,58.091Z" transform="translate(-98.297 -42.451)" fill="#fff"/>
        <path id="Path_529" data-name="Path 529" d="M121.069,65.794a.456.456,0,0,1-.292-.805c3.765-3.137,10.417-1.972,10.7-1.92a.456.456,0,0,1-.163.9c-.065-.012-6.517-1.139-9.952,1.724A.454.454,0,0,1,121.069,65.794Z" transform="translate(-98.297 -47.117)" fill="#fff"/>
      </g>
    </g>
  </g>
</svg>
