<svg xmlns="http://www.w3.org/2000/svg" width="30.115" height="30.115" viewBox="0 0 30.115 30.115">
  <g id="social--linkedin" transform="translate(19467.72 4503.708)">
    <g id="Group_2173" data-name="Group 2173">
      <circle id="Ellipse_328" data-name="Ellipse 328" cx="10.147" cy="10.147" r="10.147" transform="translate(-19467.014 -4488.65) rotate(-45)" fill="none" stroke="#db5935" stroke-miterlimit="10" stroke-width="1"/>
    </g>
    <g id="Group_2171" data-name="Group 2171" transform="translate(-19457.906 -4494.41)">
      <rect id="Rectangle_1753" data-name="Rectangle 1753" width="2.497" height="7.136" transform="translate(0 3.568)" fill="#db5935"/>
      <path id="Path_512" data-name="Path 512" d="M368.841,420.023a1.249,1.249,0,1,0,1.248,1.249A1.25,1.25,0,0,0,368.841,420.023Z" transform="translate(-367.592 -420.023)" fill="#db5935"/>
      <path id="Path_513" data-name="Path 513" d="M400.493,445.969c-.168-1.345-.841-2.192-2.659-2.192-1.29,0-1.8.2-2.1.764h0v-.764h-2.021v7.136h2.08v-3.735c0-.932.177-1.637,1.329-1.637,1.136,0,1.228.867,1.228,1.7v3.675h2.142S400.532,446.283,400.493,445.969Z" transform="translate(-389.789 -440.209)" fill="#db5935"/>
    </g>
  </g>
</svg>
