<svg xmlns="http://www.w3.org/2000/svg" width="25.617" height="25.617" viewBox="0 0 25.617 25.617">
  <g id="social--twitter" transform="translate(19529.602 4501.523)">
    <circle id="Ellipse_326" data-name="Ellipse 326" cx="10.147" cy="10.147" r="10.147" transform="translate(-19529 -4481.17) rotate(-76.717)" fill="none" stroke="#db5935" stroke-miterlimit="10" stroke-width="1"/>
    <g id="Group_2165" data-name="Group 2165" transform="translate(-19523.082 -4493.862)">
      <path id="Path_504" data-name="Path 504" d="M448.051,280.945a5.139,5.139,0,0,1-1.262.361c.2-.034.5-.4.623-.551a2.324,2.324,0,0,0,.42-.766c.011-.022.019-.049,0-.066a.072.072,0,0,0-.067.006,6.456,6.456,0,0,1-1.5.574.1.1,0,0,1-.1-.027,1.2,1.2,0,0,0-.131-.134,2.651,2.651,0,0,0-.726-.445,2.528,2.528,0,0,0-1.114-.18,2.662,2.662,0,0,0-1.057.3,2.72,2.72,0,0,0-.853.7,2.621,2.621,0,0,0-.509,1.02,2.766,2.766,0,0,0-.027,1.077c.008.06,0,.068-.052.06a8.01,8.01,0,0,1-5.153-2.623c-.06-.069-.093-.069-.142.005a2.613,2.613,0,0,0,.446,3.087c.1.1.2.192.317.279a2.626,2.626,0,0,1-.994-.279c-.06-.038-.09-.016-.1.052a1.576,1.576,0,0,0,.016.3,2.643,2.643,0,0,0,1.629,2.107,1.534,1.534,0,0,0,.33.1,2.945,2.945,0,0,1-.975.03c-.071-.014-.1.022-.071.09a2.743,2.743,0,0,0,2.049,1.716c.093.016.186.016.279.038-.006.008-.011.008-.016.016a3.248,3.248,0,0,1-1.4.742,5.014,5.014,0,0,1-2.125.272c-.114-.017-.138-.016-.169,0s0,.047.033.076c.145.1.292.18.443.262a7.024,7.024,0,0,0,1.421.568,7.567,7.567,0,0,0,7.346-1.718,7.708,7.708,0,0,0,2.033-5.624c0-.081.1-.125.152-.168a4.949,4.949,0,0,0,1-1.04.3.3,0,0,0,.062-.2v-.011C448.1,280.912,448.1,280.922,448.051,280.945Z" transform="translate(-435.599 -279.711)" fill="#db5935"/>
      <path id="Path_505" data-name="Path 505" d="M450.27,320.227Z" transform="translate(-446.558 -309.976)" fill="#db5935" fill-rule="evenodd"/>
      <path id="Path_506" data-name="Path 506" d="M449.988,320.227c-.016,0-.206,0,0,0Z" transform="translate(-446.276 -309.976)" fill="#db5935" fill-rule="evenodd"/>
      <path id="Path_507" data-name="Path 507" d="M451.933,320.242c0-.021.222,0,0,0C451.933,320.232,451.96,320.242,451.933,320.242Z" transform="translate(-447.8 -309.981)" fill="#db5935" fill-rule="evenodd"/>
      <path id="Path_508" data-name="Path 508" d="M469.254,279.771a.044.044,0,0,1-.052,0Z" transform="translate(-460.7 -279.756)" fill="#db5935" fill-rule="evenodd"/>
    </g>
  </g>
</svg>
