<svg xmlns="http://www.w3.org/2000/svg" width="30.115" height="30.115" viewBox="0 0 30.115 30.115">
  <g id="social--youtube" transform="translate(19435.084 4503.708)">
    <circle id="Ellipse_328" data-name="Ellipse 328" cx="10.147" cy="10.147" r="10.147" transform="translate(-19434.377 -4488.65) rotate(-45)" fill="none" stroke="#db5935" stroke-miterlimit="10" stroke-width="1"/>
    <g id="Group_2166" data-name="Group 2166" transform="translate(-19426.256 -4493.03)">
      <path id="Path_511" data-name="Path 511" d="M701.65,185.754A2.754,2.754,0,0,0,698.9,183h-7.142A2.754,2.754,0,0,0,689,185.754V189.1a2.754,2.754,0,0,0,2.754,2.754H698.9a2.754,2.754,0,0,0,2.754-2.754Zm-4.507,1.842-2.848,1.562c-.124.067-.235-.023-.235-.163v-3.207c0-.142.115-.232.239-.161l2.868,1.645A.187.187,0,0,1,697.144,187.6Z" transform="translate(-689 -183)" fill="#db5935"/>
    </g>
  </g>
</svg>
