<svg xmlns="http://www.w3.org/2000/svg" width="25.617" height="25.617" viewBox="0 0 25.617 25.617">
  <g id="social--facebook" transform="translate(19498.735 4501.523)">
    <circle id="Ellipse_327" data-name="Ellipse 327" cx="10.147" cy="10.147" r="10.147" transform="translate(-19498.133 -4481.17) rotate(-76.717)" fill="none" stroke="#db5935" stroke-miterlimit="10" stroke-width="1"/>
    <path id="Path_510" data-name="Path 510" d="M576.407,281.13v6.215a.162.162,0,0,0,.162.162h2.308a.162.162,0,0,0,.162-.162v-6.316h1.673a.162.162,0,0,0,.161-.148l.161-1.9a.162.162,0,0,0-.161-.176h-1.834v-1.35a.573.573,0,0,1,.573-.573h1.29a.162.162,0,0,0,.162-.162v-1.9a.162.162,0,0,0-.162-.162h-2.179a2.315,2.315,0,0,0-2.315,2.315V278.8h-1.154a.162.162,0,0,0-.162.162v1.9a.162.162,0,0,0,.162.162h1.154Z" transform="translate(-20064.014 -4769.794)" fill="#db5935" fill-rule="evenodd"/>
  </g>
</svg>
